<svg width="329" height="328" viewBox="0 0 329 328" fill="none" xmlns="http://www.w3.org/2000/svg">
<path d="M237.093 250.204C287.76 207.689 306.356 146.437 278.629 113.393C250.903 80.3499 187.352 88.0276 136.685 130.542C86.0182 173.057 67.4216 234.309 95.1485 267.352C122.875 300.396 186.426 292.718 237.093 250.204Z" fill="#1E1E1E"/>
<path d="M153.306 239.265C159.653 233.94 160.48 224.478 155.155 218.132C149.83 211.786 140.369 210.958 134.023 216.283C127.677 221.608 126.849 231.07 132.174 237.416C137.499 243.762 146.96 244.59 153.306 239.265Z" fill="#2FC12C"/>
<path d="M248.161 168.935C257.681 160.947 258.922 146.755 250.935 137.236C242.947 127.717 228.755 126.475 219.236 134.463C209.717 142.45 208.475 156.642 216.463 166.161C224.45 175.681 238.642 176.922 248.161 168.935Z" fill="url(#paint0_linear_1_167)"/>
<path d="M244.903 165.06C252.307 158.848 253.273 147.81 247.06 140.406C240.848 133.002 229.81 132.036 222.406 138.249C215.002 144.461 214.036 155.5 220.249 162.903C226.461 170.307 237.5 171.273 244.903 165.06Z" fill="#1E1E1E"/>
<path d="M243.337 163.72C249.684 158.395 250.511 148.933 245.186 142.587C239.861 136.241 230.4 135.413 224.054 140.738C217.708 146.064 216.88 155.525 222.205 161.871C227.53 168.217 236.991 169.045 243.337 163.72Z" fill="#006F1F"/>
<path d="M98.4343 84.9568L157.847 136.089L138.473 152.346L98.4343 84.9568Z" fill="#1E1E1E"/>
<path d="M106.084 94.0739C110.805 90.1129 111.421 83.0752 107.46 78.3547C103.499 73.6341 96.4609 73.0184 91.7404 76.9794C87.0199 80.9404 86.4042 87.9781 90.3652 92.6986C94.3261 97.4192 101.364 98.0349 106.084 94.0739Z" fill="#1E1E1E"/>
<defs>
<linearGradient id="paint0_linear_1_167" x1="211.5" y1="169.5" x2="253.5" y2="134.5" gradientUnits="userSpaceOnUse">
<stop stop-color="#2FC12C"/>
<stop offset="1" stop-color="#006F1F"/>
</linearGradient>
</defs>
</svg>
