<svg width="12" height="20" viewBox="0 0 12 20" fill="none" xmlns="http://www.w3.org/2000/svg">
<path d="M11.2078 16.7094C11.5382 17.043 11.7236 17.4936 11.7236 17.9632C11.7236 18.4327 11.5382 18.8833 11.2078 19.2169C11.0448 19.3815 10.8508 19.5121 10.6371 19.6012C10.4233 19.6903 10.194 19.7362 9.96242 19.7362C9.73083 19.7362 9.50153 19.6903 9.28778 19.6012C9.07402 19.5121 8.88005 19.3815 8.71707 19.2169L0.792468 11.2385C0.462148 10.9048 0.276855 10.4543 0.276855 9.98477C0.276855 9.51525 0.462148 9.0647 0.792468 8.73102L8.71747 0.751025C9.04958 0.432654 9.49351 0.257565 9.95353 0.263513C10.4136 0.269462 10.8528 0.455973 11.1766 0.782825C11.5016 1.11095 11.6865 1.55244 11.6924 2.01424C11.6983 2.47605 11.5247 2.92211 11.2082 3.25842L4.52747 9.98422L11.2078 16.7094Z" fill="white"/>
</svg>
