<svg width="12" height="20" viewBox="0 0 12 20" fill="none" xmlns="http://www.w3.org/2000/svg">
<path d="M10.9309 16.446C11.2613 16.7796 11.4467 17.2302 11.4467 17.6998C11.4467 18.1693 11.2613 18.6199 10.9309 18.9535C10.7679 19.1181 10.5739 19.2487 10.3602 19.3378C10.1464 19.4269 9.91715 19.4728 9.68557 19.4728C9.45398 19.4728 9.22468 19.4269 9.01093 19.3378C8.79717 19.2487 8.60319 19.1181 8.44021 18.9535L0.515613 10.9751C0.185293 10.6414 0 10.1909 0 9.7214C0 9.25188 0.185293 8.80133 0.515613 8.46765L8.44061 0.487659C8.77272 0.169288 9.21666 -0.00580127 9.67668 0.000146735C10.1367 0.00609573 10.5759 0.192607 10.8997 0.519459C11.2247 0.847584 11.4096 1.28907 11.4155 1.75087C11.4214 2.21268 11.2478 2.65874 10.9313 2.99505L4.25062 9.72085L10.9309 16.446Z" fill="#2FC12C"/>
</svg>
