<svg width="200" height="200" viewBox="0 0 200 200" fill="none" xmlns="http://www.w3.org/2000/svg">
<circle cx="100" cy="100" r="100" fill="url(#paint0_linear_416_44)"/>
<path d="M125.608 47.3881C129.33 43.3078 135.655 43.0172 139.736 46.7391L148.601 54.8261C152.682 58.548 152.972 64.873 149.25 68.9533L100.728 122.148C99.9841 122.964 98.7191 123.022 97.903 122.277L77.2163 103.408C76.4003 102.664 76.3422 101.399 77.0865 100.582L125.608 47.3881Z" fill="#D9D9D9"/>
<path d="M64.2891 135.721C63.8723 137.286 65.3913 138.671 66.9115 138.113L91.9418 128.917C93.3502 128.399 93.7084 126.573 92.5999 125.562L74.4321 108.99C73.3235 107.979 71.5377 108.503 71.1516 109.953L64.2891 135.721Z" fill="#D9D9D9"/>
<defs>
<linearGradient id="paint0_linear_416_44" x1="100" y1="0" x2="100" y2="200" gradientUnits="userSpaceOnUse">
<stop stop-color="#2FC12C"/>
<stop offset="1" stop-color="#006F1F"/>
</linearGradient>
</defs>
</svg>
