<svg width="300" height="300" viewBox="0 0 300 300" fill="none" xmlns="http://www.w3.org/2000/svg">
<rect width="300" height="300" rx="10" fill="url(#paint0_linear_1_163)"/>
<mask id="mask0_1_163" style="mask-type:alpha" maskUnits="userSpaceOnUse" x="0" y="0" width="300" height="300">
<rect width="300" height="300" rx="10" fill="url(#paint1_linear_1_163)"/>
</mask>
<g mask="url(#mask0_1_163)">
</g>
<path d="M223.093 227.204C273.76 184.689 292.356 123.437 264.629 90.3935C236.903 57.3499 173.352 65.0276 122.685 107.542C72.0182 150.057 53.4216 211.309 81.1485 244.352C108.875 277.396 172.426 269.718 223.093 227.204Z" fill="#1E1E1E"/>
<path d="M139.306 216.265C145.653 210.94 146.48 201.478 141.155 195.132C135.83 188.786 126.369 187.958 120.023 193.283C113.677 198.608 112.849 208.07 118.174 214.416C123.499 220.762 132.96 221.59 139.306 216.265Z" fill="#2FC12C"/>
<path d="M234.161 145.935C243.681 137.947 244.922 123.755 236.935 114.236C228.947 104.717 214.755 103.475 205.236 111.463C195.717 119.45 194.475 133.642 202.463 143.161C210.45 152.681 224.642 153.922 234.161 145.935Z" fill="url(#paint2_linear_1_163)"/>
<path d="M230.903 142.06C238.307 135.848 239.273 124.81 233.06 117.406C226.848 110.002 215.81 109.036 208.406 115.249C201.002 121.461 200.036 132.5 206.249 139.903C212.461 147.307 223.5 148.273 230.903 142.06Z" fill="#1E1E1E"/>
<path d="M229.337 140.72C235.684 135.395 236.511 125.933 231.186 119.587C225.861 113.241 216.4 112.413 210.054 117.738C203.708 123.064 202.88 132.525 208.205 138.871C213.53 145.217 222.991 146.045 229.337 140.72Z" fill="#006F1F"/>
<path d="M84.4343 61.9568L143.847 113.089L124.473 129.346L84.4343 61.9568Z" fill="#1E1E1E"/>
<path d="M92.0844 71.0739C96.8049 67.1129 97.4206 60.0752 93.4597 55.3547C89.4987 50.6341 82.4609 50.0184 77.7404 53.9794C73.0199 57.9404 72.4042 64.9781 76.3652 69.6986C80.3261 74.4192 87.3639 75.0349 92.0844 71.0739Z" fill="#1E1E1E"/>
<defs>
<linearGradient id="paint0_linear_1_163" x1="150" y1="0" x2="150" y2="300" gradientUnits="userSpaceOnUse">
<stop stop-color="#2FC12C"/>
<stop offset="1" stop-color="#006F1F"/>
</linearGradient>
<linearGradient id="paint1_linear_1_163" x1="150" y1="0" x2="150" y2="300" gradientUnits="userSpaceOnUse">
<stop stop-color="#00DCEA"/>
<stop offset="1" stop-color="#0199D0"/>
</linearGradient>
<linearGradient id="paint2_linear_1_163" x1="197.5" y1="146.5" x2="239.5" y2="111.5" gradientUnits="userSpaceOnUse">
<stop stop-color="#2FC12C"/>
<stop offset="1" stop-color="#006F1F"/>
</linearGradient>
</defs>
</svg>
