<svg width="456" height="456" viewBox="0 0 456 456" fill="none" xmlns="http://www.w3.org/2000/svg">
<g clip-path="url(#clip0_646_54)">
<path d="M456 0H0V456H456V0Z" fill="url(#paint0_linear_646_54)"/>
<path d="M282.093 305.204C332.76 262.689 351.356 201.437 323.629 168.393C295.902 135.35 232.352 143.028 181.685 185.542C131.018 228.057 112.421 289.309 140.148 322.352C167.875 355.396 231.426 347.718 282.093 305.204Z" fill="#1E1E1E"/>
<path d="M198.307 294.265C204.653 288.94 205.48 279.478 200.155 273.132C194.83 266.786 185.369 265.958 179.023 271.283C172.677 276.609 171.849 286.07 177.174 292.416C182.499 298.762 191.96 299.59 198.307 294.265Z" fill="#2FC12C"/>
<path d="M293.161 223.935C302.681 215.947 303.922 201.755 295.935 192.236C287.947 182.717 273.755 181.475 264.236 189.463C254.717 197.45 253.475 211.642 261.463 221.161C269.45 230.681 283.642 231.922 293.161 223.935Z" fill="url(#paint1_linear_646_54)"/>
<path d="M289.903 220.06C297.307 213.848 298.273 202.81 292.06 195.406C285.848 188.002 274.81 187.036 267.406 193.249C260.002 199.461 259.036 210.5 265.249 217.903C271.461 225.307 282.5 226.273 289.903 220.06Z" fill="#1E1E1E"/>
<path d="M288.337 218.72C294.683 213.395 295.511 203.933 290.186 197.587C284.861 191.241 275.4 190.413 269.054 195.738C262.708 201.063 261.88 210.525 267.205 216.871C272.53 223.217 281.991 224.045 288.337 218.72Z" fill="#006F1F"/>
<path d="M143.434 139.957L202.847 191.089L183.473 207.346L143.434 139.957Z" fill="#1E1E1E"/>
<path d="M151.085 149.074C155.805 145.113 156.421 138.075 152.46 133.355C148.499 128.634 141.461 128.018 136.741 131.979C132.02 135.94 131.404 142.978 135.365 147.699C139.326 152.419 146.364 153.035 151.085 149.074Z" fill="#1E1E1E"/>
</g>
<defs>
<linearGradient id="paint0_linear_646_54" x1="228" y1="0" x2="228" y2="456" gradientUnits="userSpaceOnUse">
<stop stop-color="#2FC12C"/>
<stop offset="1" stop-color="#006F1F"/>
</linearGradient>
<linearGradient id="paint1_linear_646_54" x1="256.5" y1="224.5" x2="298.5" y2="189.5" gradientUnits="userSpaceOnUse">
<stop stop-color="#2FC12C"/>
<stop offset="1" stop-color="#006F1F"/>
</linearGradient>
<clipPath id="clip0_646_54">
<rect width="456" height="456" fill="white"/>
</clipPath>
</defs>
</svg>
